<?xml version="1.0" encoding="UTF-8"?>
<svg version="1.1" viewBox="0 0 456 456" width="456" height="456" xmlns="http://www.w3.org/2000/svg">
<path transform="translate(0)" d="m0 0h456v456h456z" fill="transparent"/>
<path transform="translate(228,0)" d="m0 0h23l26 3 21 5 21 7 18 8 20 11 17 12 11 9 15 14 12 14 11 15 13 22 10 23 7 22 5 25 2 21v24l-2 20-5 25-10 30-8 17-12 20-12 16-13 15-10 10-11 9-13 10-20 12-16 8-20 8-23 6-24 4-13 1h-18l-21-2-25-5-27-9-20-9-20-12-12-9-11-9-15-14-9-10-13-17-12-20-10-21-7-20-5-19-3-19-1-10v-35l3-25 7-28 8-21 8-16 8-14 12-17 13-15 17-17 17-13 15-10 25-13 25-9 23-5 15-2z" fill="#FDFCF9"/>
<path transform="translate(242,35)" d="m0 0h7l8 3 10 9 9 12 13 22 9 15 7 9 7 7 7 5-2 5-2 1h-8l-11-4-11-6-11-9-7-6 13 41 13 40 28 82 8 23-2 4-8 5-11 4-18 4-22 3-14 1h-36l-32-3-24-5-13-5-8-5-1-6 20-61 16-47 12-33 12-31 11-25 10-21 12-20 4-5z" fill="#181816"/>
<path transform="translate(228,0)" d="m0 0h23l26 3 21 5 21 7 18 8 20 11 17 12 11 9 15 14 12 14 11 15 13 22 10 23 7 22 5 25 2 21v24l-2 20-5 25-10 30-8 17-12 20-12 16-13 15-10 10-11 9-13 10-20 12-16 8-20 8-23 6-24 4-13 1h-18l-21-2-25-5-27-9-20-9-20-12-12-9-11-9-15-14-9-10-13-17-12-20-10-21-7-20-5-19-3-19-1-10v-35l3-25 7-28 8-21 8-16 8-14 12-17 13-15 17-17 17-13 15-10 25-13 25-9 23-5 15-2zm-7 14-27 4-23 6-21 9-18 10-16 11-11 9-10 9-13 13-13 17-11 18-8 16-8 20-6 22-3 17-1 9v39l3 21 6 24 10 25 11 21 12 17 11 13 18 18 14 11 15 10 18 10 25 10 23 6 19 3 10 1h24l18-2 20-4 20-6 21-9 18-10 17-12 11-9 15-14 9-11 8-10 11-17 8-15 8-20 6-19 5-26 1-11v-28l-3-24-6-25-7-20-9-19-11-18-9-12-12-14-9-9-14-11-11-8-15-9-15-8-20-8-20-6-20-4-10-1z" fill="#181816"/>
<path transform="translate(130,273)" d="m0 0h2l-2 11 3 9 7 6 16 7 20 5 21 3 12 1 27 1 27-1 26-3 25-6 12-5 9-6 3-4 1-7-3-8v-3l10 1 21 7 17 9 10 8 4 7v8l-4 7-7 7-14 8-14 6-25 7-31 6-24 3-15 1h-50l-33-3-30-5-23-5-17-5-21-10-10-9-4-5-1-3v-8l4-7 7-7 15-8 19-7z" fill="#181816"/>
<path transform="translate(206,61)" d="m0 0 1 2-8 13-17 5-21 10-15 10-11 9-4 4-1 7-5 5-7 3-10 14-10 19-7 19-4 17-2 18v15l2 19 5 21 1 6-8 6h-2l-6-21-3-17-1-11v-20l2-18 5-21 10-25 8-14 11-15v-12l4-5 7-1 5-1 13-11 15-10 16-8 15-6z" fill="#181816"/>
<path transform="translate(293,67)" d="m0 0 15 6 16 8 11 7 16 12 4 4 10 1 4 4 1 2v10l12 17 11 21 7 21 4 19 1 8v33l-3 20-6 20-2 6-4-2-6-4 3-11 5-22 1-9v-28l-3-20-6-20-8-18-10-16-5-7-7-2-5-5-1-2v-7l-4-2-11-9-21-13-10-5-9-15z" fill="#181816"/>
<path transform="translate(348,354)" d="m0 0 2 1-13 11-17 11-19 9-18 6-19 4-14 2-4 4-2 1h-10l-6-5-24-4-21-6-20-9-16-10-13-10-4-4 25 5 10 6 16 8 21 7 15 3 10 1 5-5 2-1h9l6 4 1 2 18-2 23-6 18-8 16-9 5-2z" fill="#181816"/>
<path transform="translate(244,187)" d="m0 0h5l5 5-3 10-16 50-6 18-4 3-5-1-3-3 1-8 18-55 5-16z" fill="#FDFCF9"/>
<path transform="translate(264,203)" d="m0 0 5 1 12 11 8 7 7 7v5l-7 7-8 7-12 11-6 1-4-4v-5l7-7 11-9 3-4-10-10-8-7-2-3 1-6z" fill="#FDFCF9"/>
<path transform="translate(205,203)" d="m0 0 5 1 3 4-1 5-13 12-8 7 8 8 11 9 1 7-4 4-6-1-7-7-8-7-10-10 1-7 12-11 14-13z" fill="#FDFCF9"/>
</svg>