<?xml version="1.0" encoding="UTF-8"?>
<svg version="1.1" viewBox="0 0 1024 1024" width="1024" height="1024" xmlns="http://www.w3.org/2000/svg">
<path transform="translate(0)" d="m0 0h1024v1024h-1024z" fill="#FDFCF9"/>
<path transform="translate(500,202)" d="m0 0h23l26 3 21 5 21 7 18 8 20 11 17 12 11 9 15 14 12 14 11 15 13 22 10 23 7 22 5 25 2 21v24l-2 20-5 25-10 30-8 17-12 20-12 16-13 15-10 10-11 9-13 10-20 12-16 8-20 8-23 6-24 4-13 1h-18l-21-2-25-5-27-9-20-9-20-12-12-9-11-9-15-14-9-10-13-17-12-20-10-21-7-20-5-19-3-19-1-10v-35l3-25 7-28 8-21 8-16 8-14 12-17 13-15 17-17 17-13 15-10 25-13 25-9 23-5 15-2z" fill="#FDFCF9"/>
<path transform="translate(514,237)" d="m0 0h7l8 3 10 9 9 12 13 22 9 15 7 9 7 7 7 5-2 5-2 1h-8l-11-4-11-6-11-9-7-6 13 41 13 40 28 82 8 23-2 4-8 5-11 4-18 4-22 3-14 1h-36l-32-3-24-5-13-5-8-5-1-6 20-61 16-47 12-33 12-31 11-25 10-21 12-20 4-5z" fill="#181816"/>
<path transform="translate(500,202)" d="m0 0h23l26 3 21 5 21 7 18 8 20 11 17 12 11 9 15 14 12 14 11 15 13 22 10 23 7 22 5 25 2 21v24l-2 20-5 25-10 30-8 17-12 20-12 16-13 15-10 10-11 9-13 10-20 12-16 8-20 8-23 6-24 4-13 1h-18l-21-2-25-5-27-9-20-9-20-12-12-9-11-9-15-14-9-10-13-17-12-20-10-21-7-20-5-19-3-19-1-10v-35l3-25 7-28 8-21 8-16 8-14 12-17 13-15 17-17 17-13 15-10 25-13 25-9 23-5 15-2zm-7 14-27 4-23 6-21 9-18 10-16 11-11 9-10 9-13 13-13 17-11 18-8 16-8 20-6 22-3 17-1 9v39l3 21 6 24 10 25 11 21 12 17 11 13 18 18 14 11 15 10 18 10 25 10 23 6 19 3 10 1h24l18-2 20-4 20-6 21-9 18-10 17-12 11-9 15-14 9-11 8-10 11-17 8-15 8-20 6-19 5-26 1-11v-28l-3-24-6-25-7-20-9-19-11-18-9-12-12-14-9-9-14-11-11-8-15-9-15-8-20-8-20-6-20-4-10-1z" fill="#181816"/>
<path transform="translate(402,475)" d="m0 0h2l-2 11 3 9 7 6 16 7 20 5 21 3 12 1 27 1 27-1 26-3 25-6 12-5 9-6 3-4 1-7-3-8v-3l10 1 21 7 17 9 10 8 4 7v8l-4 7-7 7-14 8-14 6-25 7-31 6-24 3-15 1h-50l-33-3-30-5-23-5-17-5-21-10-10-9-4-5-1-3v-8l4-7 7-7 15-8 19-7z" fill="#181816"/>
<path transform="translate(285,712)" d="m0 0h12l6 3 5 6 11-7 7-2h9l8 4 4 5 2 5 1 6v44h-17l-1-43-3-5-2-1h-7l-6 3-1 1-1 45h-17l-1-43-3-5-2-1h-7l-7 4-1 45h-17v-63h16l1 5 8-5z" fill="#181816"/>
<path transform="translate(388,712)" d="m0 0h12l7 4 5 5 7-6 8-3h11l7 3 5 6 2 6v49h-17l-1-44-2-4-2-1h-8l-7 4-1 45h-16l-1-41-3-7-2-1h-7l-7 4-1 45h-17v-63h16l1 6 8-6z" fill="#181816"/>
<path transform="translate(483,712)" d="m0 0h17l8 3 8 7 4 8 2 11v9l-3 12-7 9-9 5-4 1h-16l-10-4-6-5-5-9-2-9v-10l3-12 6-9 10-6z" fill="#181816"/>
<path transform="translate(478,263)" d="m0 0 1 2-8 13-17 5-21 10-15 10-11 9-4 4-1 7-5 5-7 3-10 14-10 19-7 19-4 17-2 18v15l2 19 5 21 1 6-8 6h-2l-6-21-3-17-1-11v-20l2-18 5-21 10-25 8-14 11-15v-12l4-5 7-1 5-1 13-11 15-10 16-8 15-6z" fill="#181816"/>
<path transform="translate(565,269)" d="m0 0 15 6 16 8 11 7 16 12 4 4 10 1 4 4 1 2v10l12 17 11 21 7 21 4 19 1 8v33l-3 20-6 20-2 6-4-2-6-4 3-11 5-22 1-9v-28l-3-20-6-20-8-18-10-16-5-7-7-2-5-5-1-2v-7l-4-2-11-9-21-13-10-5-9-15z" fill="#181816"/>
<path transform="translate(145,686)" d="m0 0h15l12 3 5 3v17l-13-6-7-2h-7l-8 3-2 3v7l5 5 23 10 8 6 4 6 1 4v12l-4 9-7 6-9 4-16 2-12-2-11-4v-16l5 2 14 4h11l8-3 2-3v-8l-4-4-21-9-8-5-6-7-2-6v-9l4-10 9-8z" fill="#181816"/>
<path transform="translate(632,686)" d="m0 0h15l13 4 4 4v15h-3l-10-5-8-2-11 1-8 4-6 7-3 9v16l4 11 5 6 5 3 4 1h15l9-3 5-3h2v16l-11 5-9 2h-14l-10-3-11-7-7-8-5-12-1-5v-18l2-10 6-12 7-7 10-6z" fill="#181816"/>
<path transform="translate(620,556)" d="m0 0 2 1-13 11-17 11-19 9-18 6-19 4-14 2-4 4-2 1h-10l-6-5-24-4-21-6-20-9-16-10-13-10-4-4 25 5 10 6 16 8 21 7 15 3 10 1 5-5 2-1h9l6 4 1 2 18-2 23-6 18-8 16-9 5-2z" fill="#181816"/>
<path transform="translate(857,712)" d="m0 0h15l10 5 6 7 3 8 1 7v9h-41l4 10 5 4 2 1h11l10-4h3l5 8-2 4-8 4-7 2h-16l-10-4-7-6-5-9-1-4v-19l3-9 8-9 7-4z" fill="#181816"/>
<path transform="translate(189,713)" d="m0 0h18l1 45 1 3 9 1 10-5 1-44h17v63h-17l-1-5-11 6h-14l-8-4-4-6-1-3-1-26z" fill="#181816"/>
<path transform="translate(560,712)" d="m0 0h13l8 4 5 8 1 4v48h-17l-1-43-3-5-8-1-8 3-1 1-1 45h-18v-63h17l-1 7h2v-2z" fill="#181816"/>
<path transform="translate(770,712)" d="m0 0h16l9 3 5 4-1 4-5 7-9-3-9-1-8 4-3 5-1 4v9l3 9 6 5 4 1h7l11-5 5 9-1 4-10 5-4 1h-15l-9-3-8-6-5-9-2-8v-12l3-11 6-8 9-6z" fill="#181816"/>
<path transform="translate(808,684)" d="m0 0h17v92h-17z" fill="#181816"/>
<path transform="translate(734,711)" d="m0 0 8 1v17h-14l-5 4-2 5-1 38h-17v-63h16l1 7 5-5 5-3z" fill="#181816"/>
<path transform="translate(674,713)" d="m0 0h17v63h-17z" fill="#181816"/>
<path transform="translate(516,389)" d="m0 0h5l5 5-3 10-16 50-6 18-4 3-5-1-3-3 1-8 18-55 5-16z" fill="#FDFCF9"/>
<path transform="translate(487,725)" d="m0 0h8l5 3 4 6 1 4v12l-3 9-5 4-2 1h-8l-6-4-3-6-1-5v-10l3-9 5-4z" fill="#FDFCF9"/>
<path transform="translate(536,405)" d="m0 0 5 1 12 11 8 7 7 7v5l-7 7-8 7-12 11-6 1-4-4v-5l7-7 11-9 3-4-10-10-8-7-2-3 1-6z" fill="#FDFCF9"/>
<path transform="translate(477,405)" d="m0 0 5 1 3 4-1 5-13 12-8 7 8 8 11 9 1 7-4 4-6-1-7-7-8-7-10-10 1-7 12-11 14-13z" fill="#FDFCF9"/>
<path transform="translate(677,685)" d="m0 0h10l5 4 1 2v7l-5 5-9 1-5-3-3-5 1-7z" fill="#181816"/>
<path transform="translate(860,724)" d="m0 0h8l6 4 2 6v4h-25l2-9 5-4z" fill="#FDFCF9"/>
</svg>
